<svg xmlns="http://www.w3.org/2000/svg" viewBox="0 0 180 180" fill="none" role="img" aria-label="The Detailing Studio">
  <rect width="180" height="180" rx="40" fill="#071230"/>
  <rect x="0" y="0" width="20" height="180" rx="10" fill="#0456d8"/>
  <path
    d="M62 45h38.2c25.3 0 40.5 15.8 40.5 36 0 12.4-6.2 22.5-16.8 28.7 13.5 6.2 21.3 17.4 21.3 30.9 0 23.1-19.1 39.4-47.2 39.4H62V45zm22.5 20.2v29.3h13.5c10.1 0 15.8-5.1 15.8-14.1 0-9-5.7-15.2-15.8-15.2H84.5zm0 48.5v31.5h16.9c12.4 0 20.2-6.8 20.2-16.9 0-9.6-7.8-14.6-20.2-14.6H84.5z"
    fill="#ffffff"
  />
</svg>
