<svg xmlns="http://www.w3.org/2000/svg" viewBox="0 0 32 32" fill="none" role="img" aria-label="The Detailing Studio">
  <rect width="32" height="32" rx="7" fill="#071230"/>
  <rect x="0" y="0" width="3.5" height="32" rx="1.75" fill="#0456d8"/>
  <path
    d="M11 8h6.8c4.5 0 7.2 2.8 7.2 6.4 0 2.2-1.1 4-3 5.1 2.4 1.1 3.8 3.1 3.8 5.5 0 4.1-3.4 7-8.4 7H11V8zm4 3.6v5.2h2.4c1.8 0 2.8-.9 2.8-2.5 0-1.6-1-2.7-2.8-2.7H15zm0 8.6v5.6h3c2.2 0 3.6-1.2 3.6-3 0-1.7-1.4-2.6-3.6-2.6H15z"
    fill="#ffffff"
  />
</svg>
